<?xml version="1.0" encoding="utf-8"?>
<!-- Generator: Adobe Illustrator 15.0.0, SVG Export Plug-In . SVG Version: 6.00 Build 0)  -->
<!DOCTYPE svg PUBLIC "-//W3C//DTD SVG 1.1//EN" "http://www.w3.org/Graphics/SVG/1.1/DTD/svg11.dtd">
<svg version="1.1" id="图层_1" xmlns="http://www.w3.org/2000/svg" xmlns:xlink="http://www.w3.org/1999/xlink" x="0px" y="0px"
	 width="32px" height="32px" viewBox="0 0 32 32" enable-background="new 0 0 32 32" xml:space="preserve">
<title>icon/32/播报</title>
<desc>Created with Sketch.</desc>
<g>
	<path id="path-1" d="M18,24v2H4c-1.104,0-2-0.896-2-2V7c0-1.104,0.896-2,2-2h24c1.104,0,2,0.896,2,2v10h-2V7l-8.086,8.086
		L21.828,17H19l-0.5-0.5l-1.086,1.086c-0.781,0.781-2.047,0.781-2.828,0L13.5,16.5L6,24H18z M4,23.172l8.086-8.086L4,7V23.172z
		 M6.829,7L16,16.171L25.172,7H6.829z M25.975,25.021l2.485-2.486l1.415,1.414l-4.95,4.95l-4.95-4.95l1.414-1.414l2.586,2.586V18h2
		V25.021z"/>
</g>
</svg>
