<?xml version="1.0" encoding="utf-8"?>
<!-- Generator: Adobe Illustrator 21.0.0, SVG Export Plug-In . SVG Version: 6.00 Build 0)  -->
<svg version="1.1" id="图层_1" xmlns="http://www.w3.org/2000/svg" xmlns:xlink="http://www.w3.org/1999/xlink" x="0px" y="0px"
	 viewBox="0 0 24 24" style="enable-background:new 0 0 24 24;" xml:space="preserve">
<title>icon/area1</title>
<desc>Created with Sketch.</desc>
<path id="path-1" d="M19,11.1c0.6,0.2,1,0.8,1,1.4c0,0.8-0.6,1.5-1.4,1.5c-1,2.9-3.8,5-7.1,5C7.4,19,4,15.6,4,11.5S7.4,4,11.5,4
	C15.5,4,18.8,7.1,19,11.1z M18,11.1C17.8,7.7,15,5,11.5,5C7.9,5,5,7.9,5,11.5S7.9,18,11.5,18c2.8,0,5.2-1.8,6.1-4.3
	C17.2,13.4,17,13,17,12.5C17,11.9,17.4,11.3,18,11.1z"/>
</svg>
