<?xml version="1.0" encoding="utf-8"?>
<!-- Generator: Adobe Illustrator 21.0.0, SVG Export Plug-In . SVG Version: 6.00 Build 0)  -->
<svg version="1.1" id="图层_1" xmlns="http://www.w3.org/2000/svg" xmlns:xlink="http://www.w3.org/1999/xlink" x="0px" y="0px"
	 viewBox="0 0 24 24" style="enable-background:new 0 0 24 24;" xml:space="preserve">
<title>2</title>
<path d="M18.1,8.1h-2.6V7.2c0-0.5-0.4-0.9-0.9-0.9H9.4c-0.5,0-0.9,0.4-0.9,0.9v0.9H5.9C5.4,8.1,5,8.5,5,8.9v7.9
	c0,0.5,0.4,0.9,0.9,0.9h12.2c0.5,0,0.9-0.4,0.9-0.9V8.9C19,8.5,18.6,8.1,18.1,8.1z M9.4,7.2h5.2v0.9H9.4C9.4,8.1,9.4,7.2,9.4,7.2z
	 M18.1,16.8H5.9v-3.5h4.8v0.4c0,0.5,0.4,0.9,0.9,0.9h0.9c0.5,0,0.9-0.4,0.9-0.9v-0.4h4.8L18.1,16.8L18.1,16.8z M11.6,13.8V12h0.9
	v1.8C12.4,13.8,11.6,13.8,11.6,13.8z M13.3,12.4V12c0-0.5-0.4-0.9-0.9-0.9h-0.9c-0.5,0-0.9,0.4-0.9,0.9v0.4H5.9V8.9h12.2v3.5H13.3
	L13.3,12.4z"/>
</svg>
