<?xml version="1.0" encoding="iso-8859-1"?>
<!-- Generator: Adobe Illustrator 21.0.0, SVG Export Plug-In . SVG Version: 6.00 Build 0)  -->
<svg version="1.1" id="&#x56FE;&#x5C42;_1" xmlns="http://www.w3.org/2000/svg" xmlns:xlink="http://www.w3.org/1999/xlink" x="0px"
	 y="0px" viewBox="0 0 32 32" style="enable-background:new 0 0 32 32;" xml:space="preserve">
<title>icon/32/事件下发</title>
<desc>Created with Sketch.</desc>
<path id="path-1" d="M25.975,25.021l2.485-2.485l1.414,1.414l-4.95,4.95l-4.95-4.95l1.414-1.414l2.586,2.586V18h2V25.021z
	 M16.975,28v2H4c-1.105,0-2-0.895-2-2V3c0-1.105,0.895-2,2-2h20c1.105,0,2,0.895,2,2v12h-2V3H4v25H16.975z M16.975,16v2H8
	c-0.552,0-1-0.448-1-1s0.448-1,1-1H16.975z M16.975,22.776v0.447C16.873,23.668,16.475,24,16,24H8c-0.552,0-1-0.448-1-1s0.448-1,1-1
	h8C16.475,22,16.873,22.332,16.975,22.776z M8,6h12c0.552,0,1,0.448,1,1s-0.448,1-1,1H8C7.448,8,7,7.552,7,7S7.448,6,8,6z M8,11h12
	c0.552,0,1,0.448,1,1s-0.448,1-1,1H8c-0.552,0-1-0.448-1-1S7.448,11,8,11z"/>
</svg>
