<?xml version="1.0" encoding="utf-8"?>
<!-- Generator: Adobe Illustrator 21.0.0, SVG Export Plug-In . SVG Version: 6.00 Build 0)  -->
<svg version="1.1" id="图层_1" xmlns="http://www.w3.org/2000/svg" xmlns:xlink="http://www.w3.org/1999/xlink" x="0px" y="0px"
	 viewBox="0 0 24 24" style="enable-background:new 0 0 24 24;" xml:space="preserve">
<title>icon/line1</title>
<desc>Created with Sketch.</desc>
<g>
	<path id="path-1" d="M6.3,16L16,7.2c0-0.1,0-0.1,0-0.2c0-0.6,0.4-1,1-1s1,0.4,1,1s-0.4,1-1,1c-0.1,0-0.2,0-0.3,0L7,16.8
		c0,0.1,0,0.1,0,0.2c0,0.6-0.4,1-1,1s-1-0.4-1-1s0.4-1,1-1C6.1,16,6.2,16,6.3,16z"/>
</g>
</svg>
