<?xml version="1.0" encoding="utf-8"?>
<!-- Generator: Adobe Illustrator 21.0.0, SVG Export Plug-In . SVG Version: 6.00 Build 0)  -->
<svg version="1.1" id="图层_1" xmlns="http://www.w3.org/2000/svg" xmlns:xlink="http://www.w3.org/1999/xlink" x="0px" y="0px"
	 viewBox="0 0 24 24" style="enable-background:new 0 0 24 24;" xml:space="preserve">
<title>list</title>
<path d="M9.5,6h10C19.8,6,20,6.2,20,6.5S19.8,7,19.5,7h-10C9.2,7,9,6.8,9,6.5S9.2,6,9.5,6z M9.5,12h10c0.3,0,0.5,0.2,0.5,0.5
	S19.8,13,19.5,13h-10C9.2,13,9,12.8,9,12.5S9.2,12,9.5,12z M9.5,18h10c0.3,0,0.5,0.2,0.5,0.5S19.8,19,19.5,19h-10
	C9.2,19,9,18.8,9,18.5S9.2,18,9.5,18z M6,5h1c0.6,0,1,0.4,1,1v1c0,0.6-0.4,1-1,1H6C5.4,8,5,7.6,5,7V6C5,5.4,5.4,5,6,5z M6,11h1
	c0.6,0,1,0.4,1,1v1c0,0.6-0.4,1-1,1H6c-0.6,0-1-0.4-1-1v-1C5,11.4,5.4,11,6,11z M6,17h1c0.6,0,1,0.4,1,1v1c0,0.6-0.4,1-1,1H6
	c-0.6,0-1-0.4-1-1v-1C5,17.4,5.4,17,6,17z M6,18v1h1v-1H6z M6,6v1h1V6H6z M6,12v1h1v-1H6z"/>
</svg>
