<?xml version="1.0" encoding="utf-8"?>
<!-- Generator: Adobe Illustrator 21.0.0, SVG Export Plug-In . SVG Version: 6.00 Build 0)  -->
<svg version="1.1" id="图层_1" xmlns="http://www.w3.org/2000/svg" xmlns:xlink="http://www.w3.org/1999/xlink" x="0px" y="0px"
	 viewBox="0 0 24 24" style="enable-background:new 0 0 24 24;" xml:space="preserve">
<title>1</title>
<path d="M7.6,5.9c2.4-2.6,6.4-2.6,8.9,0s1.9,6.8-0.6,9.4L12,20l-3.9-4.7C5.7,12.7,5.1,8.5,7.6,5.9L7.6,5.9z M12,18.4l3.1-3.8
	c2.2-2.4,2.5-5.9,0.6-8c-2.1-2.2-5.3-2.2-7.4,0c-2,2.1-1.7,5.6,0.6,8.1L12,18.4z M12,7c1.7,0,3,1.3,3,3c0,1.7-1.3,3-3,3
	c-1.7,0-3-1.3-3-3S10.3,7,12,7z M12,12c1.1,0,2-0.9,2-2s-0.9-2-2-2s-2,0.9-2,2S10.9,12,12,12z"/>
</svg>
