<?xml version="1.0" encoding="iso-8859-1"?>
<!-- Generator: Adobe Illustrator 21.0.0, SVG Export Plug-In . SVG Version: 6.00 Build 0)  -->
<svg version="1.1" id="&#x56FE;&#x5C42;_1" xmlns="http://www.w3.org/2000/svg" xmlns:xlink="http://www.w3.org/1999/xlink" x="0px"
	 y="0px" viewBox="0 0 32 32" style="enable-background:new 0 0 32 32;" xml:space="preserve">
<title>icon/32/抓拍</title>
<desc>Created with Sketch.</desc>
<g>
	<path id="path-1" d="M24.5,8C25.328,8,26,8.671,26,9.5S25.328,11,24.5,11S23,10.329,23,9.5S23.672,8,24.5,8z M17,29v-2h10
		c0.552,0,1-0.448,1-1v-8h2v8c0,1.657-1.343,3-3,3H17z M15,29H5c-1.657,0-3-1.343-3-3v-8h2v8c0,0.552,0.448,1,1,1h10V29z M17,4h10
		c1.657,0,3,1.343,3,3v9h-2V7c0-0.552-0.448-1-1-1H17V4z M15,4v2H5C4.448,6,4,6.448,4,7v9H2V7c0-1.657,1.343-3,3-3H15z M18,15
		l3-2.766L26,23H6l7.498-13.604L18,15z M9.386,21h13.48l-2.525-5.437l-2.559,2.359l-3.973-4.946L9.386,21z"/>
</g>
</svg>
