<?xml version="1.0" encoding="utf-8"?>
<!-- Generator: Adobe Illustrator 21.0.0, SVG Export Plug-In . SVG Version: 6.00 Build 0)  -->
<svg version="1.1" id="图层_1" xmlns="http://www.w3.org/2000/svg" xmlns:xlink="http://www.w3.org/1999/xlink" x="0px" y="0px"
	 viewBox="0 0 24 24" style="enable-background:new 0 0 24 24;" xml:space="preserve">
<g>
	<g>
		<path d="M18,6H6C4.9,6,4,6.9,4,8v7c0,1.1,0.9,2,2,2h4l1.7,1.7c0.1,0.1,0.2,0.2,0.4,0.2c0.1,0,0.3-0.1,0.4-0.2L14,17h4
			c1.1,0,2-0.9,2-2V8C20,6.9,19.1,6,18,6L18,6z M6,16c-0.6,0-1-0.4-1-1V8c0-0.6,0.4-1,1-1h12c0.6,0,1,0.4,1,1v7c0,0.6-0.4,1-1,1h-4
			h-0.4l-0.3,0.3L12,17.6l-1.3-1.3L10.4,16H10H6L6,16z"/>
	</g>
	<g>
		<path d="M8,10c-0.6,0-1,0.4-1,1s0.4,1,1,1s1-0.4,1-1S8.6,10,8,10L8,10z"/>
	</g>
	<g>
		<path d="M12,10c-0.6,0-1,0.4-1,1s0.4,1,1,1s1-0.4,1-1S12.6,10,12,10L12,10z"/>
	</g>
	<g>
		<path d="M16,10c-0.6,0-1,0.4-1,1s0.4,1,1,1s1-0.4,1-1S16.6,10,16,10L16,10z"/>
	</g>
</g>
</svg>
