<?xml version="1.0" encoding="utf-8"?>
<!-- Generator: Adobe Illustrator 15.0.0, SVG Export Plug-In . SVG Version: 6.00 Build 0)  -->
<!DOCTYPE svg PUBLIC "-//W3C//DTD SVG 1.1//EN" "http://www.w3.org/Graphics/SVG/1.1/DTD/svg11.dtd">
<svg version="1.1" id="图层_1" xmlns="http://www.w3.org/2000/svg" xmlns:xlink="http://www.w3.org/1999/xlink" x="0px" y="0px"
	 width="48px" height="48px" viewBox="0 0 48 48" enable-background="new 0 0 48 48" xml:space="preserve">
<path fill="#7F8A9A" d="M23.803,16.657c4.126,0,7.472,3.346,7.472,7.474s-3.346,7.475-7.472,7.475c-4.127,0-7.474-3.347-7.474-7.475
	S19.675,16.657,23.803,16.657 M23.803,13.657c-5.775,0-10.474,4.698-10.474,10.474s4.699,10.475,10.474,10.475
	c5.774,0,10.472-4.699,10.472-10.475S29.577,13.657,23.803,13.657L23.803,13.657z"/>
<path fill="#7F8A9A" d="M1.733,15.532c-0.808,0-1.462-0.655-1.462-1.463V5.66C0.271,2.534,2.805,0,5.931,0h9.492
	c0.808,0,1.462,0.655,1.462,1.462c0,0.808-0.655,1.462-1.462,1.462H5.931c-1.511,0-2.735,1.225-2.735,2.735v8.409
	C3.196,14.877,2.541,15.532,1.733,15.532z"/>
<path fill="#7F8A9A" d="M46.268,15.795c-0.809,0-1.463-0.655-1.463-1.463V5.66c0-1.511-1.225-2.735-2.734-2.735l0,0h-9.479
	c-0.807,0-1.462-0.654-1.462-1.462S31.785,0,32.592,0h9.492c3.126,0,5.66,2.534,5.66,5.66v8.672c0,0.808-0.654,1.463-1.463,1.463
	C46.277,15.795,46.271,15.795,46.268,15.795z"/>
<path fill="#7F8A9A" d="M15.422,48H5.931c-3.098,0-5.62-2.49-5.66-5.587v-8.481c0-0.809,0.655-1.464,1.462-1.464
	c0.808,0,1.463,0.655,1.463,1.464v8.481c0,1.511,1.224,2.735,2.735,2.735l0,0h9.492c0.808,0,1.462,0.653,1.462,1.461
	c0,0.809-0.655,1.464-1.462,1.464L15.422,48L15.422,48z"/>
<path fill="#7F8A9A" d="M41.068,48h-9.478c-0.807,0-1.462-0.654-1.462-1.463s0.655-1.462,1.462-1.462h9.492
	c1.478-0.009,2.683-1.187,2.722-2.662v-8.774c0-0.809,0.653-1.463,1.463-1.463c0.807,0,1.461,0.654,1.461,1.463v8.774
	C46.689,45.51,44.167,48,41.068,48z"/>
</svg>
