<?xml version="1.0" encoding="utf-8"?>
<!-- Generator: Adobe Illustrator 21.0.0, SVG Export Plug-In . SVG Version: 6.00 Build 0)  -->
<svg version="1.1" id="图层_1" xmlns="http://www.w3.org/2000/svg" xmlns:xlink="http://www.w3.org/1999/xlink" x="0px" y="0px"
	 viewBox="0 0 24 24" style="enable-background:new 0 0 24 24;" xml:space="preserve">
<title>untitled</title>
<path d="M18.7,8.3L15.4,5c-0.2-0.2-0.6-0.2-0.8,0L5,14.7c-0.2,0.2-0.2,0.6,0,0.8l3.2,3.2c0.2,0.2,0.6,0.2,0.8,0L18.7,9
	C18.9,8.8,18.9,8.5,18.7,8.3z M8.6,17.5l-2.5-2.5l0.6-0.6l0.4,0.4c0.2,0.2,0.6,0.2,0.8,0s0.2-0.6,0-0.8l-0.4-0.4l0.6-0.6l0.4,0.4
	c0.2,0.2,0.6,0.2,0.8,0c0.2-0.2,0.2-0.6,0-0.8l-0.4-0.4l0.6-0.6l0.4,0.4c0.2,0.2,0.6,0.2,0.8,0c0.2-0.2,0.2-0.6,0-0.8l-0.4-0.4
	l0.6-0.6l0.4,0.4c0.2,0.2,0.6,0.2,0.8,0s0.2-0.6,0-0.8l-0.4-0.4l0.6-0.6l0.4,0.4c0.2,0.2,0.6,0.2,0.8,0s0.2-0.6,0-0.8l-0.4-0.4
	l0.6-0.6l0.4,0.4c0.2,0.2,0.6,0.2,0.8,0c0.2-0.2,0.2-0.6,0-0.8l-0.4-0.4l0.5-0.5l2.5,2.5L8.6,17.5z"/>
</svg>
