<?xml version="1.0" encoding="utf-8"?>
<!-- Generator: Adobe Illustrator 21.0.0, SVG Export Plug-In . SVG Version: 6.00 Build 0)  -->
<svg version="1.1" id="图层_1" xmlns="http://www.w3.org/2000/svg" xmlns:xlink="http://www.w3.org/1999/xlink" x="0px" y="0px"
	 viewBox="0 0 24 24" style="enable-background:new 0 0 24 24;" xml:space="preserve">
<title>icon/line2</title>
<desc>Created with Sketch.</desc>
<g>
	<path id="path-1" d="M6.6,18.2L17,12.9c0-0.3,0.2-0.6,0.5-0.8V5.9c0,0,0,0-0.1,0L7,11.1C7,11.6,6.5,12,6,12c-0.6,0-1-0.4-1-1
		s0.4-1,1-1c0.2,0,0.4,0.1,0.6,0.2L17,4.9C17,4.4,17.5,4,18,4c0.6,0,1,0.4,1,1c0,0.4-0.2,0.7-0.5,0.9v6.3c0.3,0.2,0.5,0.5,0.5,0.9
		c0,0.6-0.4,1-1,1c-0.2,0-0.4-0.1-0.5-0.2L7,19.1C6.9,19.6,6.5,20,6,20c-0.6,0-1-0.4-1-1s0.4-1,1-1C6.2,18,6.4,18.1,6.6,18.2z"/>
</g>
</svg>
