<?xml version="1.0" encoding="utf-8"?>
<!-- Generator: Adobe Illustrator 15.0.0, SVG Export Plug-In . SVG Version: 6.00 Build 0)  -->
<!DOCTYPE svg PUBLIC "-//W3C//DTD SVG 1.1//EN" "http://www.w3.org/Graphics/SVG/1.1/DTD/svg11.dtd">
<svg version="1.1" id="图层_1" xmlns="http://www.w3.org/2000/svg" xmlns:xlink="http://www.w3.org/1999/xlink" x="0px" y="0px"
	 width="32px" height="32px" viewBox="0 0 32 32" enable-background="new 0 0 32 32" xml:space="preserve">
<title>icon/32/过车</title>
<desc>Created with Sketch.</desc>
<g>
	<path id="path-1" d="M26.864,22.975c0-3.133-2.548-5.681-5.683-5.681c-3.134,0-5.684,2.548-5.684,5.681s2.548,5.684,5.684,5.684
		C24.314,28.66,26.864,26.109,26.864,22.975z M30.154,31.857l-4.004-3.069c-1.346,1.149-3.066,1.872-4.969,1.872
		c-4.236,0-7.684-3.448-7.684-7.684c0-4.234,3.447-7.681,7.684-7.681s7.683,3.446,7.683,7.681c0,1.607-0.5,3.1-1.349,4.336
		l3.858,2.957L30.154,31.857z M6,26h5.988c-0.192-0.646-0.32-1.311-0.387-2H6V26z M6,22h5.595c0.065-0.689,0.187-1.354,0.376-2H6V22
		z M19,10.948h6.176L19,3.995V10.948z M3,32c-0.552,0-1-0.448-1-1V2c0-0.552,0.448-1,1-1h15.25c0.264,0,0.516,0.104,0.704,0.29
		l8.75,9.642C27.891,11.12,28,11.376,28,11.642v4.11c-0.598-0.646-1.26-1.228-2-1.712V13h-8c-0.552,0-1-0.448-1-1V3H4v27h10.196
		c0.68,0.771,1.452,1.45,2.326,2H3z M6,18h6.786c0.384-0.721,0.84-1.389,1.372-2H6V18z M6,14h8v-2H6V14z M6,10h8V8H6V10z"/>
</g>
</svg>
