<?xml version="1.0" encoding="utf-8"?>
<!-- Generator: Adobe Illustrator 15.0.0, SVG Export Plug-In . SVG Version: 6.00 Build 0)  -->
<!DOCTYPE svg PUBLIC "-//W3C//DTD SVG 1.1//EN" "http://www.w3.org/Graphics/SVG/1.1/DTD/svg11.dtd">
<svg version="1.1" id="图层_1" xmlns="http://www.w3.org/2000/svg" xmlns:xlink="http://www.w3.org/1999/xlink" x="0px" y="0px"
	 width="24px" height="24px" viewBox="-0.5 0.5 24 24" enable-background="new -0.5 0.5 24 24" xml:space="preserve">
<path fill="#7F8A9A" d="M18.5,5.5h-2h-1h-2h-1h-2h-1h-2h-1h-2c-0.552,0-1,0.448-1,1v11c0,0.553,0.448,1,1,1h2h1h2h1h2h1h2h1h2
	c0.551,0,1-0.447,1-1v-11C19.5,5.949,19.051,5.5,18.5,5.5z M15.5,6.5v1h-2v-1H15.5z M12.5,6.5v1h-2v-1H12.5z M9.5,6.5v1h-2v-1H9.5z
	 M4.5,6.5h2v1h-2V6.5z M4.5,17.5v-1h2v1H4.5z M7.5,17.5v-1h2v1H7.5z M10.5,17.5v-1h2v1H10.5z M13.5,17.5v-1h2v1H13.5z M18.5,17.5h-2
	v-1h2V17.5z M18.5,15.5h-2h-1h-2h-1h-2h-1h-2h-1h-2v-7h2h1h2h1h2h1h2h1h2V15.5z M18.5,7.5h-2v-1h2V7.5z M10.227,8.98
	c-0.154-0.104-0.325-0.117-0.488-0.029C9.574,9.039,9.5,9.209,9.5,9.395v4.74c0,0.186,0.074,0.355,0.238,0.443
	c0.073,0.039,0.139,0.057,0.219,0.057c0.1,0,0.19-0.029,0.276-0.088l3.446-2.369c0.137-0.094,0.215-0.248,0.215-0.412
	s-0.08-0.32-0.219-0.412L10.227,8.98z M10.5,13.184v-2.838l2.066,1.42L10.5,13.184z"/>
</svg>
