<?xml version="1.0" encoding="utf-8"?>
<!-- Generator: Adobe Illustrator 21.0.0, SVG Export Plug-In . SVG Version: 6.00 Build 0)  -->
<svg version="1.1" id="图层_1" xmlns="http://www.w3.org/2000/svg" xmlns:xlink="http://www.w3.org/1999/xlink" x="0px" y="0px"
	 viewBox="0 0 24 24" style="enable-background:new 0 0 24 24;" xml:space="preserve">
<title>17</title>
<path d="M17,12.5c0,0.2-0.1,0.3-0.2,0.4l-9,6C7.7,19,7.6,19,7.5,19c-0.1,0-0.2,0-0.2-0.1C7.1,18.9,7,18.7,7,18.5v-12
	c0-0.2,0.1-0.4,0.3-0.4s0.4-0.1,0.5,0l9,6C16.9,12.2,17,12.3,17,12.5z M15.6,12.5L8,7.4v10.1C8,17.6,15.6,12.5,15.6,12.5z"/>
</svg>
