<?xml version="1.0" encoding="utf-8"?>
<!-- Generator: Adobe Illustrator 21.0.0, SVG Export Plug-In . SVG Version: 6.00 Build 0)  -->
<svg version="1.1" id="图层_1" xmlns="http://www.w3.org/2000/svg" xmlns:xlink="http://www.w3.org/1999/xlink" x="0px" y="0px"
	 viewBox="0 0 24 24" style="enable-background:new 0 0 24 24;" xml:space="preserve">
<title>icon/area3</title>
<desc>Created with Sketch.</desc>
<g>
	<path id="path-1" d="M5.3,16l1.4-9.2C6.3,6.5,6,6,6,5.5C6,4.7,6.7,4,7.5,4c0.7,0,1.2,0.4,1.4,1h6.2c0.2-0.6,0.8-1,1.4-1
		C17.3,4,18,4.7,18,5.5c0,0.5-0.3,1-0.7,1.3l1.4,9.2c0.7,0.1,1.3,0.7,1.3,1.5c0,0.8-0.7,1.5-1.5,1.5c-0.7,0-1.2-0.4-1.4-1H6.9
		c-0.2,0.6-0.8,1-1.4,1C4.7,19,4,18.3,4,17.5C4,16.7,4.6,16.1,5.3,16z M6.3,16.2c0.3,0.2,0.5,0.5,0.6,0.8h10.2
		c0.1-0.3,0.3-0.6,0.6-0.8L16.3,7c-0.6-0.1-1-0.5-1.2-1H8.9C8.7,6.5,8.3,6.9,7.7,7L6.3,16.2z"/>
</g>
</svg>
