<?xml version="1.0" encoding="utf-8"?>
<!-- Generator: Adobe Illustrator 15.0.0, SVG Export Plug-In . SVG Version: 6.00 Build 0)  -->
<!DOCTYPE svg PUBLIC "-//W3C//DTD SVG 1.1//EN" "http://www.w3.org/Graphics/SVG/1.1/DTD/svg11.dtd">
<svg version="1.1" id="图层_1" xmlns="http://www.w3.org/2000/svg" xmlns:xlink="http://www.w3.org/1999/xlink" x="0px" y="0px"
	 width="24px" height="24px" viewBox="12.5 12.5 24 24" enable-background="new 12.5 12.5 24 24" xml:space="preserve">
<path fill="#7F8A9A" d="M23.895,30.5H21c-0.276,0-0.5-0.224-0.5-0.5s0.224-0.5,0.5-0.5h2.23
	C23.416,29.858,23.638,30.194,23.895,30.5z"/>
<path fill="#7F8A9A" d="M22.636,27.5H17.5v-1h5.133c0.029-0.344,0.091-0.677,0.181-1H17.5v-8h13v4.521
	c0.356,0.173,0.692,0.381,1,0.624V17.5c0-0.552-0.448-1-1-1h-13c-0.552,0-1,0.448-1,1v8v1v1c0,0.552,0.448,1,1,1h5.33
	C22.737,28.177,22.669,27.844,22.636,27.5z"/>
<path fill="#7F8A9A" d="M32.5,27.5v-1h-1.563c-0.059-0.465-0.213-0.899-0.459-1.272l1.058-1.057l-0.707-0.707l-1.038,1.038
	c-0.373-0.286-0.809-0.489-1.29-0.574V22.5h-1v1.423c-0.488,0.078-0.933,0.273-1.313,0.557l-1.015-1.015l-0.707,0.707l1.025,1.025
	c-0.259,0.38-0.417,0.825-0.478,1.303H23.5v1h1.542c0.094,0.443,0.294,0.843,0.561,1.19l-1.139,1.138l0.707,0.707l1.157-1.157
	c0.347,0.229,0.745,0.38,1.171,0.449V31.5h1v-1.679c0.421-0.074,0.813-0.23,1.154-0.461l1.175,1.175l0.707-0.707l-1.165-1.165
	c0.256-0.341,0.446-0.732,0.538-1.163H32.5z M27.976,28.875c-1.103,0-2-0.897-2-2s0.897-2,2-2c1.104,0,2,0.897,2,2
	S29.079,28.875,27.976,28.875z"/>
</svg>
