<?xml version="1.0" encoding="utf-8"?>
<!-- Generator: Adobe Illustrator 21.0.0, SVG Export Plug-In . SVG Version: 6.00 Build 0)  -->
<svg version="1.1" id="图层_1" xmlns="http://www.w3.org/2000/svg" xmlns:xlink="http://www.w3.org/1999/xlink" x="0px" y="0px"
	 viewBox="0 0 24 24" style="enable-background:new 0 0 24 24;" xml:space="preserve">
<title>9</title>
<path d="M18,12.5c0,0.2-0.1,0.3-0.2,0.4l-9,6C8.7,19,8.6,19,8.5,19c-0.1,0-0.2,0-0.2-0.1C8.1,18.9,8,18.7,8,18.5v-12
	c0-0.2,0.1-0.4,0.3-0.4C8.4,6,8.6,6,8.8,6.1l9,6C17.9,12.2,18,12.3,18,12.5z M16.6,12.5L9,7.4v10.1C9,17.6,16.6,12.5,16.6,12.5z
	 M6.5,6C6.2,6,6,6.2,6,6.5v11.9C6,18.8,6.2,19,6.5,19S7,18.8,7,18.5V6.5C7,6.2,6.8,6,6.5,6z"/>
</svg>
