<?xml version="1.0" encoding="utf-8"?>
<!-- Generator: Adobe Illustrator 21.0.0, SVG Export Plug-In . SVG Version: 6.00 Build 0)  -->
<svg version="1.1" id="图层_1" xmlns="http://www.w3.org/2000/svg" xmlns:xlink="http://www.w3.org/1999/xlink" x="0px" y="0px"
	 viewBox="0 0 24 24" style="enable-background:new 0 0 24 24;" xml:space="preserve">
<title>10</title>
<path d="M6,12.5c0,0.2,0.1,0.3,0.2,0.4l9,6c0.1,0.1,0.2,0.1,0.3,0.1c0.1,0,0.2,0,0.2-0.1c0.2-0.1,0.3-0.3,0.3-0.4v-12
	c0-0.2-0.1-0.4-0.3-0.4s-0.4-0.1-0.5,0l-9,6C6.1,12.2,6,12.3,6,12.5z M7.4,12.5L15,7.4v10.1C15,17.6,7.4,12.5,7.4,12.5z M17.5,6
	C17.8,6,18,6.2,18,6.5v11.9c0,0.3-0.2,0.5-0.5,0.5S17,18.8,17,18.5V6.5C17,6.2,17.2,6,17.5,6z"/>
</svg>
