<?xml version="1.0" encoding="utf-8"?>
<!-- Generator: Adobe Illustrator 21.0.0, SVG Export Plug-In . SVG Version: 6.00 Build 0)  -->
<svg version="1.1" id="图层_1" xmlns="http://www.w3.org/2000/svg" xmlns:xlink="http://www.w3.org/1999/xlink" x="0px" y="0px"
	 viewBox="0 0 24 24" style="enable-background:new 0 0 24 24;" xml:space="preserve">
<title>15</title>
<path d="M12.5,17.9l-3.6,2c-0.7,0.4-1.6-0.2-1.4-1.1l0.7-4.2l-2.9-2.9C4.7,11.1,5,10.1,5.8,10l4-0.6l1.8-3.8c0.4-0.8,1.4-0.8,1.8,0
	l1.8,3.8l4,0.6c0.8,0.1,1.1,1.2,0.5,1.7l-2.9,2.9l0.7,4.2c0.1,0.8-0.7,1.5-1.4,1.1L12.5,17.9z M12.5,16.8l4,2.2l-0.8-4.7L19,11
	l-4.5-0.7l-2-4.3l-2,4.3L6,11l3.3,3.3L8.5,19C8.5,19,12.5,16.8,12.5,16.8z"/>
</svg>
