<?xml version="1.0" encoding="utf-8"?>
<!-- Generator: Adobe Illustrator 15.0.0, SVG Export Plug-In . SVG Version: 6.00 Build 0)  -->
<!DOCTYPE svg PUBLIC "-//W3C//DTD SVG 1.1//EN" "http://www.w3.org/Graphics/SVG/1.1/DTD/svg11.dtd">
<svg version="1.1" id="图层_1" xmlns="http://www.w3.org/2000/svg" xmlns:xlink="http://www.w3.org/1999/xlink" x="0px" y="0px"
	 width="32px" height="32px" viewBox="0 0 32 32" enable-background="new 0 0 32 32" xml:space="preserve">
<title>icon/32/轨迹</title>
<desc>Created with Sketch.</desc>
<path id="path-1_1_" d="M12,4c0.552,0,1,0.448,1,1s-0.448,1-1,1H6C5.448,6,5,6.448,5,7s0.448,1,1,1h8c2.209,0,4,1.791,4,4
	s-1.791,4-4,4H6c-2.209,0-4,1.791-4,4s1.791,4,4,4h19c0.553,0,1,0.447,1,1s-0.447,1-1,1H6c-3.313,0-6-2.687-6-6s2.687-6,6-6h8
	c1.104,0,2-0.896,2-2s-0.896-2-2-2H6c-1.657,0-3-1.343-3-3s1.343-3,3-3H12z M25,23c-4-3.608-6-6.549-6-8.824
	C19,10.765,21.687,8,25,8s6,2.765,6,6.176C31,16.451,29,19.392,25,23z M29,14.176C29,11.857,27.195,10,25,10s-4,1.857-4,4.176
	c0,1.335,1.3,3.423,4,6.08C27.7,17.6,29,15.511,29,14.176z"/>
</svg>
