<?xml version="1.0" encoding="utf-8"?>
<!-- Generator: Adobe Illustrator 15.0.0, SVG Export Plug-In . SVG Version: 6.00 Build 0)  -->
<!DOCTYPE svg PUBLIC "-//W3C//DTD SVG 1.1//EN" "http://www.w3.org/Graphics/SVG/1.1/DTD/svg11.dtd">
<svg version="1.1" id="图层_1" xmlns="http://www.w3.org/2000/svg" xmlns:xlink="http://www.w3.org/1999/xlink" x="0px" y="0px"
	 width="24px" height="24px" viewBox="-0.5 0.5 24 24" enable-background="new -0.5 0.5 24 24" xml:space="preserve">
<title>3</title>
<path d="M6.415,6.5H15.5c1.657,0,3,1.343,3,3s-1.343,3-3,3h-9c-1.105,0-2,0.895-2,2s0.895,2,2,2h10.085c0.206-0.583,0.763-1,1.415-1
	c0.828,0,1.5,0.672,1.5,1.5s-0.672,1.5-1.5,1.5c-0.652,0-1.209-0.417-1.415-1H6.5c-1.657,0-3-1.343-3-3s1.343-3,3-3h9
	c1.105,0,2-0.895,2-2s-0.895-2-2-2H6.415C6.209,8.083,5.653,8.5,5,8.5C4.172,8.5,3.5,7.828,3.5,7S4.172,5.5,5,5.5
	C5.653,5.5,6.209,5.917,6.415,6.5z M18,17.5c0.275,0,0.5-0.225,0.5-0.5s-0.225-0.5-0.5-0.5s-0.5,0.225-0.5,0.5S17.725,17.5,18,17.5z
	 M5,7.5c0.276,0,0.5-0.225,0.5-0.5c0-0.276-0.224-0.5-0.5-0.5S4.5,6.724,4.5,7C4.5,7.275,4.724,7.5,5,7.5z"/>
</svg>
