<?xml version="1.0" encoding="iso-8859-1"?>
<!-- Generator: Adobe Illustrator 21.0.0, SVG Export Plug-In . SVG Version: 6.00 Build 0)  -->
<svg version="1.1" id="&#x56FE;&#x5C42;_1" xmlns="http://www.w3.org/2000/svg" xmlns:xlink="http://www.w3.org/1999/xlink" x="0px"
	 y="0px" viewBox="0 0 24 24" style="enable-background:new 0 0 24 24;" xml:space="preserve">
<title>主形/组织</title>
<desc>Created with Sketch.</desc>
<g id="gird">
</g>
<path id="Combined-Shape" style="fill:#6F7E91;" d="M12,12v-1h-2c-0.552,0-1-0.448-1-1V5c0-0.552,0.448-1,1-1h5c0.552,0,1,0.448,1,1
	v5c0,0.552-0.448,1-1,1h-2v1h4c0.552,0,1,0.448,1,1v1h2c0.552,0,1,0.448,1,1v4c0,0.552-0.448,1-1,1h-4c-0.552,0-1-0.448-1-1v-4
	c0-0.552,0.448-1,1-1h1v-1H8v1h1c0.552,0,1,0.448,1,1v4c0,0.552-0.448,1-1,1H5c-0.552,0-1-0.448-1-1v-4c0-0.552,0.448-1,1-1h2v-1
	c0-0.552,0.448-1,1-1H12z"/>
</svg>
