<?xml version="1.0" encoding="iso-8859-1"?>
<!-- Generator: Adobe Illustrator 21.0.0, SVG Export Plug-In . SVG Version: 6.00 Build 0)  -->
<svg version="1.1" id="&#x56FE;&#x5C42;_1" xmlns="http://www.w3.org/2000/svg" xmlns:xlink="http://www.w3.org/1999/xlink" x="0px"
	 y="0px" viewBox="0 0 24 24" style="enable-background:new 0 0 24 24;" xml:space="preserve">
<title>主形/通用监控点</title>
<desc>Created with Sketch.</desc>
<g id="gird">
</g>
<path id="Combined-Shape" style="fill:#6F7E91;" d="M12.403,8.091C11.59,8.345,11,9.103,11,10c0,1.105,0.895,2,2,2s2-0.895,2-2
	c0-0.127-0.012-0.25-0.034-0.37C15.612,10.409,16,11.409,16,12.5c0,2.485-2.015,4.5-4.5,4.5S7,14.985,7,12.5S9.015,8,11.5,8
	C11.809,8,12.111,8.031,12.403,8.091z M11.5,21C6.806,21,3,17.194,3,12.5S6.806,4,11.5,4S20,7.806,20,12.5S16.194,21,11.5,21z
	 M11.5,19c3.588,0,6.5-2.916,6.5-6.5S15.084,6,11.5,6S5,8.916,5,12.5S7.916,19,11.5,19z M8.707,15.121
	c0.391,0.391,1.024,0.391,1.414,0c0.391-0.391,0.391-1.024,0-1.414c-0.391-0.391-1.024-0.391-1.414,0
	C8.317,14.098,8.317,14.731,8.707,15.121z"/>
</svg>
