<?xml version="1.0" encoding="iso-8859-1"?>
<!-- Generator: Adobe Illustrator 21.0.0, SVG Export Plug-In . SVG Version: 6.00 Build 0)  -->
<svg version="1.1" id="&#x56FE;&#x5C42;_1" xmlns="http://www.w3.org/2000/svg" xmlns:xlink="http://www.w3.org/1999/xlink" x="0px"
	 y="0px" viewBox="0 0 24 24" style="enable-background:new 0 0 24 24;" xml:space="preserve">
<title>主形/用户</title>
<desc>Created with Sketch.</desc>
<g id="gird">
</g>
<path id="Combined-Shape-Copy" style="fill:#6F7E91;" d="M15.826,15.192c1.53,0.708,0.974,0.283,2.226,1.133
	C20,17.6,20,20.15,20,20.15c0,0.425,0,0.85-0.417,0.85H4.696C4.278,21,4,20.575,4,20.15c0,0,0-2.975,2.087-4.108
	c1.252-0.708,0.696-0.142,2.365-0.85c1.53-0.708,1.252-0.85,1.252-0.85v-1.558c0,0-0.835-0.425-0.974-1.983
	c-0.417,0-0.557-0.567-0.557-0.992S7.896,8.392,8.452,8.392C8.313,7.683,8.313,6.975,8.313,6.55C8.452,5.417,9.704,4.142,11.652,4
	c2.226,0.142,3.2,1.417,3.339,2.692c0,0.425,0,0.992-0.139,1.842c0.557-0.142,0.278,0.992,0.278,1.417s-0.139,0.992-0.557,0.85
	c-0.139,1.558-0.835,1.983-0.835,1.983v1.558C13.739,14.342,14.296,14.483,15.826,15.192z"/>
</svg>
