<?xml version="1.0" encoding="iso-8859-1"?>
<!-- Generator: Adobe Illustrator 21.0.0, SVG Export Plug-In . SVG Version: 6.00 Build 0)  -->
<svg version="1.1" id="&#x56FE;&#x5C42;_1" xmlns="http://www.w3.org/2000/svg" xmlns:xlink="http://www.w3.org/1999/xlink" x="0px"
	 y="0px" viewBox="0 0 24 24" style="enable-background:new 0 0 24 24;" xml:space="preserve">
<title>主形/设备</title>
<desc>Created with Sketch.</desc>
<g id="gird">
</g>
<path id="XMLID_529_" style="fill:#6F7E91;" d="M21,7.3c0-0.1-0.1-0.1-0.1-0.2l-2-2C18.8,5,18.6,5,18.5,5h-13C5.4,5,5.2,5,5.1,5.1
	l-2,2c0,0-0.1,0.1-0.1,0.2c0,0.1,0,0.1,0,0.2V16c0,0.552,0.448,1,1,1h2v1h2v-1h8v1h2v-1h2c0.552,0,1-0.448,1-1V7.5
	C21,7.4,21,7.4,21,7.3z M4.7,7l1-1h12.6l1,1H4.7z M6,11h1v2H6V11z M9,11h1v2H9V11z M12,11h1v2h-1V11z M17,14c-1.067,0-2-0.933-2-2
	s0.933-2,2-2s2,0.933,2,2S18.067,14,17,14z M17,11c-0.6,0-1,0.4-1,1s0.4,1,1,1s1-0.4,1-1S17.6,11,17,11z"/>
</svg>
