<?xml version="1.0" encoding="iso-8859-1"?>
<!-- Generator: Adobe Illustrator 21.0.0, SVG Export Plug-In . SVG Version: 6.00 Build 0)  -->
<svg version="1.1" id="&#x56FE;&#x5C42;_1" xmlns="http://www.w3.org/2000/svg" xmlns:xlink="http://www.w3.org/1999/xlink" x="0px"
	 y="0px" viewBox="0 0 24 24" style="enable-background:new 0 0 24 24;" xml:space="preserve">
<title>主形/大型车</title>
<desc>Created with Sketch.</desc>
<g id="gird">
</g>
<path id="Fill-1" style="fill:#6F7E91;" d="M18,7c0.55,0,1,0.45,1,1v1c0,0.55-0.45,1-1,1v7.071C18,17.582,17.552,18,17.005,18H17v1
	c0,0.55-0.45,1-1,1c-0.55,0-1-0.45-1-1v-1H8v1c0,0.55-0.45,1-1,1s-1-0.45-1-1v-1H5.995C5.448,18,5,17.582,5,17.071V10
	c-0.55,0-1-0.45-1-1V8c0-0.55,0.45-1,1-1V5.633c0-0.421,0.297-0.79,0.732-0.899C6.831,4.46,8,4,11.5,4s4.669,0.46,5.768,0.734
	C17.703,4.843,18,5.212,18,5.633V7z M7,12h9V7H7V12z M15,16c0.553,0,1-0.447,1-1s-0.447-1-1-1s-1,0.447-1,1S14.447,16,15,16z M8,16
	c0.553,0,1-0.447,1-1s-0.447-1-1-1s-1,0.447-1,1S7.447,16,8,16z M10.5,5C10.225,5,10,5.225,10,5.5S10.225,6,10.5,6h2
	C12.775,6,13,5.775,13,5.5S12.775,5,12.5,5H10.5z"/>
</svg>
