<?xml version="1.0" encoding="utf-8"?>
<!-- Generator: Adobe Illustrator 15.0.0, SVG Export Plug-In . SVG Version: 6.00 Build 0)  -->
<!DOCTYPE svg PUBLIC "-//W3C//DTD SVG 1.1//EN" "http://www.w3.org/Graphics/SVG/1.1/DTD/svg11.dtd">
<svg version="1.1" id="图层_1" xmlns="http://www.w3.org/2000/svg" xmlns:xlink="http://www.w3.org/1999/xlink" x="0px" y="0px"
	 width="32px" height="32px" viewBox="0 0 32 32" enable-background="new 0 0 32 32" xml:space="preserve">
<title>icon/32/车辆追踪</title>
<desc>Created with Sketch.</desc>
<path id="path-1" d="M27,13.832c-0.635-0.277-1.305-0.491-2-0.632V9.008C25,9.005,25,9.002,25,9s0-0.005,0-0.008v-5.53
	C21.721,2.486,18.449,2,15.18,2C11.886,2,8.494,2.494,5,3.485V24h8.049c0.068,0.689,0.207,1.359,0.409,2H9v3c0,0.553-0.448,1-1,1H6
	c-0.552,0-1-0.447-1-1v-3c-1.104,0-2-0.896-2-2V12c-1.104,0-2-1.343-2-3s0.896-3,2-3V3.486c0-0.895,0.594-1.68,1.454-1.924
	C8.122,0.521,11.697,0,15.18,0c3.465,0,6.928,0.515,10.391,1.545C26.418,1.798,27,2.577,27,3.462V6c1.104,0,2,1.343,2,3
	s-0.896,3-2,3V13.832z M18.636,14c-1.039,0.505-1.978,1.184-2.777,2H9c-1.104,0-2-0.896-2-2V8c0-1.104,0.896-2,2-2h12
	c1.104,0,2,0.896,2,2v5c-0.686,0-1.354,0.069-2,0.2V8H9v6H18.636z M9,22c-1.104,0-2-0.896-2-2s0.896-2,2-2s2,0.896,2,2
	S10.104,22,9,22z M17.083,24c0.421,2.513,2.404,4.496,4.917,4.917V26h2v2.917c2.513-0.421,4.496-2.404,4.917-4.917H26v-2h2.917
	c-0.421-2.513-2.404-4.496-4.917-4.917V20h-2v-2.917c-2.513,0.421-4.496,2.404-4.917,4.917H20v2H17.083z M23,31
	c-4.418,0-8-3.582-8-8s3.582-8,8-8s8,3.582,8,8S27.418,31,23,31z M23,24c-0.553,0-1-0.447-1-1s0.447-1,1-1s1,0.447,1,1
	S23.553,24,23,24z"/>
</svg>
