<?xml version="1.0" encoding="utf-8"?>
<!-- Generator: Adobe Illustrator 15.0.0, SVG Export Plug-In . SVG Version: 6.00 Build 0)  -->
<!DOCTYPE svg PUBLIC "-//W3C//DTD SVG 1.1//EN" "http://www.w3.org/Graphics/SVG/1.1/DTD/svg11.dtd">
<svg version="1.1" id="图层_1" xmlns="http://www.w3.org/2000/svg" xmlns:xlink="http://www.w3.org/1999/xlink" x="0px" y="0px"
	 width="32px" height="32px" viewBox="0 0 32 32" enable-background="new 0 0 32 32" xml:space="preserve">
<title>icon/32/车辆管理</title>
<desc>Created with Sketch.</desc>
<path id="path-1" d="M27,13.832c-0.635-0.277-1.305-0.491-2-0.632V9.008C25,9.005,25,9.002,25,9s0-0.005,0-0.008v-5.53
	C21.721,2.486,18.449,2,15.18,2C11.886,2,8.494,2.494,5,3.485V24h8.049c0.068,0.689,0.207,1.359,0.409,2H9v3c0,0.553-0.448,1-1,1H6
	c-0.552,0-1-0.447-1-1v-3c-1.104,0-2-0.896-2-2V12c-1.104,0-2-1.343-2-3s0.896-3,2-3V3.486c0-0.895,0.594-1.68,1.454-1.924
	C8.122,0.521,11.697,0,15.18,0c3.465,0,6.928,0.515,10.391,1.545C26.418,1.798,27,2.577,27,3.462V6c1.104,0,2,1.343,2,3
	s-0.896,3-2,3V13.832z M18.636,14c-1.039,0.505-1.978,1.184-2.777,2H9c-1.104,0-2-0.896-2-2V8c0-1.104,0.896-2,2-2h12
	c1.104,0,2,0.896,2,2v5c-0.686,0-1.354,0.069-2,0.2V8H9v6H18.636z M9,22c-1.104,0-2-0.896-2-2s0.896-2,2-2s2,0.896,2,2
	S10.104,22,9,22z M19.306,27.053c0,0.286-0.046,0.568-0.137,0.842c0.521,0.458,1.106,0.818,1.735,1.066
	c0.441-0.752,1.229-1.223,2.096-1.223c0.867,0,1.655,0.472,2.094,1.223c0.63-0.248,1.217-0.608,1.736-1.066
	c-0.09-0.27-0.136-0.553-0.136-0.842c0-1.28,0.913-2.371,2.134-2.534C28.942,24.021,29,23.513,29,23
	c0-0.514-0.059-1.021-0.172-1.518c-1.223-0.164-2.134-1.256-2.134-2.535c0-0.289,0.046-0.572,0.136-0.842
	c-0.521-0.457-1.107-0.817-1.736-1.066c-0.441,0.752-1.228,1.223-2.094,1.223c-0.865,0-1.653-0.471-2.096-1.222
	c-0.629,0.249-1.216,0.609-1.734,1.065c0.09,0.271,0.136,0.555,0.136,0.842c0,1.279-0.911,2.37-2.134,2.535
	C17.058,21.98,17,22.488,17,23c0,0.513,0.058,1.021,0.172,1.519C18.396,24.685,19.306,25.773,19.306,27.053z M15.25,25.08
	C15.084,24.4,15,23.703,15,23s0.084-1.399,0.25-2.082c0.188-0.773,0.843-1.345,1.635-1.415c0.221-0.02,0.421-0.251,0.421-0.556
	c0-0.077-0.013-0.153-0.038-0.223c-0.265-0.722-0.066-1.536,0.505-2.053c0.759-0.684,1.63-1.212,2.575-1.56
	c0.873-0.319,1.838,0.064,2.267,0.889c0.088,0.168,0.235,0.262,0.386,0.262s0.297-0.093,0.385-0.264
	c0.432-0.823,1.396-1.206,2.27-0.886c0.943,0.347,1.814,0.876,2.575,1.562c0.569,0.515,0.768,1.329,0.503,2.051
	c-0.025,0.069-0.038,0.143-0.038,0.223c0,0.305,0.2,0.536,0.42,0.556c0.79,0.07,1.444,0.64,1.636,1.417
	C30.916,21.601,31,22.297,31,23s-0.084,1.4-0.25,2.086c-0.191,0.77-0.844,1.339-1.637,1.412c-0.22,0.02-0.419,0.25-0.419,0.555
	c0,0.08,0.013,0.153,0.038,0.225c0.264,0.722,0.066,1.534-0.504,2.051c-0.759,0.685-1.632,1.214-2.576,1.561
	c-0.871,0.318-1.834-0.063-2.269-0.889c-0.088-0.17-0.234-0.262-0.384-0.262c-0.15,0-0.297,0.093-0.387,0.264
	c-0.43,0.822-1.394,1.205-2.266,0.887c-0.944-0.347-1.817-0.876-2.577-1.563c-0.569-0.515-0.767-1.327-0.505-2.045
	c0.027-0.075,0.04-0.151,0.04-0.229c0-0.305-0.199-0.535-0.425-0.555c-0.79-0.073-1.442-0.644-1.631-1.416l0.971-0.237L15.25,25.08z
	 M23,25c-1.105,0-2-0.896-2-2c0-1.105,0.895-2,2-2c1.104,0,2,0.895,2,2C25,24.104,24.104,25,23,25z"/>
</svg>
