<?xml version="1.0" encoding="utf-8"?>
<!-- Generator: Adobe Illustrator 21.0.0, SVG Export Plug-In . SVG Version: 6.00 Build 0)  -->
<svg version="1.1" id="图层_1" xmlns="http://www.w3.org/2000/svg" xmlns:xlink="http://www.w3.org/1999/xlink" x="0px" y="0px"
	 viewBox="0 0 24 24" style="enable-background:new 0 0 24 24;" xml:space="preserve">
<style type="text/css">
	.st0{fill:#7F8A9A;}
</style>
<title>video-openSound</title>
<path class="st0" d="M12.7,5.6c-0.2-0.1-0.4,0-0.5,0.1L8.8,9H4.5C4.2,9,4,9.2,4,9.5v6C4,15.8,4.2,16,4.5,16h4.4l3.3,2.4
	c0.1,0.1,0.2,0.1,0.3,0.1c0.1,0,0.2,0,0.2-0.1c0.2-0.1,0.3-0.3,0.3-0.4V6C13,5.8,12.9,5.7,12.7,5.6z M5,15v-5h1v5H5z M12,17
	l-2.6-1.9C9.3,15,9.2,15,9.1,15H7v-5h2c0.1,0,0.3-0.1,0.4-0.1L12,7.2V17z M14,14.7v-1c1,0,1.6-0.7,1.6-1.6c0-0.9-0.6-1.6-1.6-1.6v-1
	c2,0,2.6,1.2,2.6,2.6C16.6,13.5,16,14.7,14,14.7z M19,12.1c0,2.7-2,4.9-5,4.9v-1c3,0,4-1.7,4-3.9s-1-3.9-4-3.9v-1
	C17,7.2,19,9.4,19,12.1z"/>
</svg>
