<?xml version="1.0" encoding="utf-8"?>
<!-- Generator: Adobe Illustrator 21.0.0, SVG Export Plug-In . SVG Version: 6.00 Build 0)  -->
<svg version="1.1" id="图层_1" xmlns="http://www.w3.org/2000/svg" xmlns:xlink="http://www.w3.org/1999/xlink" x="0px" y="0px"
	 viewBox="0 0 24 24" style="enable-background:new 0 0 24 24;" xml:space="preserve">
<style type="text/css">
	.st0{fill:#7F8A9A;}
</style>
<title>video-capturePicture</title>
<path class="st0" d="M19,4H5C4.4,4,4,4.4,4,5v11c0,0.6,0.4,1,1,1h14c0.6,0,1-0.4,1-1V5C20,4.4,19.6,4,19,4z M19,11.9l-3.8-2.1
	c-0.2-0.1-0.4-0.1-0.6,0l-4.9,3.9l-2-1.3c-0.2-0.1-0.4-0.1-0.6,0L5,14.2V5h14C19,5,19,11.9,19,11.9z M5,15.4l2.5-2l4,2.6H5V15.4z
	 M13.3,16l-2.7-1.8l4.4-3.4l4,2.3V16H13.3z M7.5,6.5h1v1h-1V6.5z"/>
</svg>
