<?xml version="1.0" encoding="utf-8"?>
<!-- Generator: Adobe Illustrator 21.0.0, SVG Export Plug-In . SVG Version: 6.00 Build 0)  -->
<svg version="1.1" id="图层_1" xmlns="http://www.w3.org/2000/svg" xmlns:xlink="http://www.w3.org/1999/xlink" x="0px" y="0px"
	 viewBox="0 0 24 24" style="enable-background:new 0 0 24 24;" xml:space="preserve">
<style type="text/css">
	.st0{fill:#7F8A9A;}
</style>
<title>video-closeSound</title>
<path class="st0" d="M10.7,8.6L10,7.9l2.2-2.2c0.1-0.1,0.4-0.2,0.5-0.1C12.9,5.7,13,5.8,13,6v4.8l-1-1V7.2L10.7,8.6z M15.6,12.1
	c0,0.4-0.1,0.8-0.4,1l0.8,0.8c0.4-0.5,0.6-1.1,0.6-1.8c0-1.4-0.6-2.6-2.6-2.6v1C15,10.5,15.6,11.2,15.6,12.1z M18,12.1
	c0,1.1-0.3,2.1-1,2.8l0.6,0.6c0.9-0.9,1.3-2.1,1.3-3.4c0-2.7-2-4.9-5-4.9v1C17,8.2,18,10,18,12.1z M12,14.1l1,1V18
	c0,0.2-0.1,0.4-0.3,0.4c-0.1,0-0.1,0.1-0.2,0.1c-0.1,0-0.2,0-0.3-0.1L8.9,16H4.5C4.2,16,4,15.8,4,15.5v-6C4,9.2,4.2,9,4.5,9h2.4l1,1
	H7v5h2.1c0.1,0,0.2,0,0.3,0.1L12,17C12,17,12,14.1,12,14.1z M6,10H5v5h1V10z M14,17c0.3,0,0.5,0,0.8-0.1L14,16.1
	C14,16.1,14,17,14,17z M7.9,7.2C7.7,7,7.4,7,7.2,7.2S7,7.7,7.2,7.9l9.9,9.9c0.2,0.2,0.5,0.2,0.7,0s0.2-0.5,0-0.7
	C17.8,17.1,7.9,7.2,7.9,7.2z"/>
</svg>
