<?xml version="1.0" encoding="utf-8"?>
<!-- Generator: Adobe Illustrator 21.0.0, SVG Export Plug-In . SVG Version: 6.00 Build 0)  -->
<svg version="1.1" id="图层_1" xmlns="http://www.w3.org/2000/svg" xmlns:xlink="http://www.w3.org/1999/xlink" x="0px" y="0px"
	 viewBox="0 0 24 24" style="enable-background:new 0 0 24 24;" xml:space="preserve">
<title>-1</title>
<path d="M14,18.5c0,0.3-0.2,0.5-0.5,0.5c-0.1,0-0.2,0-0.3-0.1L9,16H6c-0.6,0-1-0.4-1-1v-5c0-0.6,0.4-1,1-1h3l4.2-2.9
	c0.2-0.2,0.5-0.1,0.7,0.1C14,6.3,14,6.4,14,6.5L14,18.5L14,18.5z M13,7.5L9.3,10H6v5h3.3l3.7,2.5C13,17.5,13,7.5,13,7.5z M15,17
	c2.2-0.2,4-2.2,4-4.5S17.2,8.3,15,8V7c2.8,0.3,5,2.6,5,5.5s-2.2,5.2-5,5.5V17z M15,15c1.1-0.2,2-1.2,2-2.5s-0.9-2.2-2-2.5V9
	c1.7,0.2,3,1.7,3,3.5s-1.3,3.2-3,3.5C15,16,15,15,15,15z"/>
</svg>
